<svg width="259" height="259" viewBox="0 0 259 259" fill="none" xmlns="http://www.w3.org/2000/svg">
<path d="M259 129.5C259 163.846 245.356 196.784 221.07 221.07C196.784 245.356 163.846 259 129.5 259C95.1545 259 62.2156 245.356 37.9297 221.07C13.6437 196.784 0 163.846 0 129.5C0 57.9816 57.9816 0 129.5 0C201.018 0 259 57.9816 259 129.5Z" fill="#AADBA7"/>
<path d="M238.736 199.081C227.033 217.446 210.889 232.563 191.796 243.036C172.703 253.509 151.278 259 129.501 259C107.724 259 86.299 253.509 67.206 243.036C48.1131 232.563 31.9688 217.446 20.2656 199.081H238.736Z" fill="#4B506D"/>
<path d="M76.9882 226.807H61.3065C59.3863 226.808 57.4847 226.43 55.7104 225.696C53.9361 224.961 52.3239 223.885 50.9658 222.527C49.6078 221.169 48.5305 219.558 47.7954 217.783C47.0604 216.009 46.6821 214.108 46.6821 212.188V191.296C46.6824 186.842 47.7886 182.457 49.9014 178.536C52.0142 174.615 55.0676 171.28 58.7874 168.831L61.8225 166.807L70.4879 161.096L76.9882 226.807Z" fill="#AE6025"/>
<path d="M76.9873 226.807H61.8267V166.812L70.487 161.101L76.9873 226.807Z" fill="#9F5925"/>
<path d="M213.351 191.296V212.188C213.351 214.108 212.973 216.01 212.238 217.784C211.503 219.558 210.426 221.169 209.068 222.527C207.71 223.885 206.097 224.961 204.323 225.696C202.549 226.43 200.647 226.808 198.727 226.807H183.045L189.541 161.101L194.503 164.404L201.251 168.851C204.968 171.299 208.018 174.631 210.13 178.548C212.242 182.466 213.349 186.846 213.351 191.296Z" fill="#D27629"/>
<path d="M194.504 164.384V226.807H183.026L189.522 161.101L194.504 164.384Z" fill="#C36B29"/>
<path d="M189.631 53.874V216.154C189.632 219.236 189.025 222.288 187.846 225.136C186.667 227.983 184.939 230.571 182.76 232.751C180.581 234.93 177.993 236.659 175.146 237.839C172.298 239.018 169.247 239.626 166.164 239.626H93.953C90.8711 239.626 87.8194 239.018 84.9722 237.839C82.125 236.659 79.5382 234.93 77.3594 232.75C75.1807 230.571 73.4527 227.983 72.2742 225.135C71.0958 222.288 70.4899 219.236 70.4912 216.154V53.874H189.631Z" fill="#C36B29"/>
<path d="M189.631 53.874V216.154C189.632 219.236 189.026 222.288 187.847 225.136C186.668 227.983 184.939 230.571 182.76 232.751C180.581 234.93 177.994 236.659 175.146 237.839C172.299 239.018 169.247 239.626 166.165 239.626H107.485C104.403 239.626 101.351 239.018 98.5034 237.839C95.6559 236.659 93.0687 234.93 90.8896 232.751C88.7104 230.571 86.9819 227.983 85.8029 225.136C84.6239 222.288 84.0174 219.236 84.0181 216.154V53.874H189.631Z" fill="#D27629"/>
<path d="M88.6318 115.25V152.264C88.6321 153.053 88.8111 153.832 89.1554 154.543C89.4997 155.253 90.0004 155.877 90.6199 156.366L93.7714 158.855C94.2402 159.224 94.8034 159.454 95.3966 159.518C95.9897 159.582 96.589 159.478 97.126 159.218C97.663 158.958 98.1161 158.552 98.4335 158.047C98.7509 157.542 98.9198 156.958 98.921 156.361V115.25H88.6318Z" fill="#9F5925"/>
<path d="M150.641 115.25V152.264C150.641 153.053 150.82 153.832 151.164 154.543C151.508 155.253 152.009 155.877 152.629 156.366L155.805 158.84C156.274 159.209 156.837 159.439 157.431 159.503C158.024 159.567 158.623 159.463 159.16 159.203C159.697 158.943 160.15 158.537 160.468 158.032C160.785 157.527 160.954 156.943 160.955 156.346V115.25H150.641Z" fill="#9F5925"/>
<path d="M157.228 122.828H104.522C98.2288 122.828 92.0025 121.534 86.2308 119.025C80.4591 116.516 75.2655 112.846 70.9732 108.243C66.6809 103.641 63.3818 98.2039 61.281 92.2714C59.1803 86.3389 58.3229 80.0375 58.7623 73.7593L59.3238 65.701C59.7105 60.1876 62.1733 55.0258 66.2156 51.2567C70.258 47.4875 75.5791 45.3913 81.1061 45.3907H180.644C186.171 45.3925 191.491 47.4891 195.533 51.258C199.575 55.027 202.039 60.188 202.426 65.701L202.988 73.7593C203.426 80.0373 202.569 86.3384 200.468 92.2706C198.367 98.2028 195.067 103.639 190.775 108.242C186.483 112.844 181.29 116.514 175.518 119.023C169.747 121.533 163.521 122.828 157.228 122.828Z" fill="#773A2C"/>
<path d="M157.226 122.828H121.31C115.017 122.828 108.79 121.534 103.018 119.025C97.2461 116.516 92.0522 112.846 87.7595 108.244C83.4668 103.641 80.1672 98.2043 78.0659 92.2718C75.9645 86.3392 75.1065 80.0377 75.5451 73.7593L76.1117 65.701C76.4984 60.1876 78.9612 55.0258 83.0035 51.2567C87.0459 47.4875 92.3671 45.3913 97.894 45.3907H180.643C186.169 45.3925 191.49 47.4891 195.532 51.258C199.574 55.027 202.037 60.188 202.425 65.701L202.986 73.7593C203.425 80.0373 202.567 86.3384 200.466 92.2706C198.365 98.2028 195.066 103.639 190.774 108.242C186.481 112.844 181.288 116.514 175.517 119.023C169.746 121.533 163.52 122.828 157.226 122.828Z" fill="#85432E"/>
<path d="M119.231 45.3857V41.6878C119.231 38.8154 120.372 36.0607 122.403 34.0296C124.435 31.9984 127.189 30.8574 130.062 30.8574C132.934 30.8574 135.689 31.9984 137.72 34.0296C139.751 36.0607 140.892 38.8154 140.892 41.6878V45.3857H149.558V41.6878C149.558 39.1276 149.053 36.5924 148.074 34.2271C147.094 31.8618 145.658 29.7126 143.847 27.9022C142.037 26.0919 139.888 24.6558 137.522 23.676C135.157 22.6963 132.622 22.192 130.062 22.192C127.502 22.192 124.966 22.6963 122.601 23.676C120.236 24.6558 118.086 26.0919 116.276 27.9022C114.466 29.7126 113.03 31.8618 112.05 34.2271C111.07 36.5924 110.566 39.1276 110.566 41.6878V45.3857H119.231Z" fill="#C36B29"/>
<path d="M175.535 164.349V211.899C175.536 213.855 175.151 215.792 174.403 217.599C173.655 219.406 172.558 221.048 171.175 222.431C169.792 223.814 168.15 224.911 166.342 225.66C164.535 226.408 162.598 226.793 160.643 226.792H98.9277C94.9779 226.792 91.19 225.223 88.3971 222.43C85.6042 219.637 84.0352 215.849 84.0352 211.899V164.349H175.535Z" fill="#773A2C"/>
<path d="M175.534 164.349V211.899C175.534 213.855 175.149 215.792 174.401 217.599C173.653 219.406 172.556 221.048 171.173 222.431C169.79 223.814 168.148 224.911 166.341 225.66C164.534 226.408 162.597 226.793 160.641 226.792H108.396C104.446 226.792 100.658 225.223 97.8653 222.43C95.0725 219.637 93.5034 215.849 93.5034 211.899V164.349H175.534Z" fill="#85432E"/>
<path d="M88.6318 179.15V210.463C88.6308 211.172 88.7857 211.872 89.0855 212.515C89.3854 213.157 89.8228 213.726 90.3669 214.181L94.778 217.879C95.2001 218.233 95.6914 218.495 96.2206 218.649C96.7497 218.802 97.3051 218.843 97.8511 218.77C98.3972 218.697 98.922 218.51 99.3919 218.223C99.8618 217.935 100.267 217.553 100.58 217.1L103.615 212.729V178.25L88.6318 179.15Z" fill="#6D3528"/>
<path d="M147.662 179.15V210.463C147.662 211.172 147.817 211.872 148.117 212.514C148.417 213.156 148.854 213.725 149.397 214.181L153.808 217.879C154.23 218.233 154.721 218.495 155.25 218.649C155.779 218.802 156.335 218.843 156.881 218.77C157.427 218.697 157.952 218.51 158.422 218.223C158.892 217.935 159.296 217.553 159.61 217.1L162.645 212.729V178.25L147.662 179.15Z" fill="#6D3528"/>
<path d="M171.659 181.679H87.9242C86.8006 181.677 85.6916 181.424 84.6774 180.941C83.6631 180.457 82.769 179.754 82.0594 178.883C81.3498 178.012 80.8426 176.994 80.5744 175.903C80.3061 174.812 80.2836 173.675 80.5083 172.574L81.4745 167.95C81.8963 165.945 82.9956 164.147 84.5876 162.857C86.1795 161.567 88.1669 160.865 90.2157 160.868H169.368C171.416 160.867 173.402 161.57 174.994 162.859C176.585 164.149 177.685 165.946 178.109 167.95L179.07 172.574C179.295 173.674 179.272 174.811 179.004 175.902C178.736 176.992 178.229 178.01 177.52 178.881C176.811 179.752 175.918 180.455 174.904 180.939C173.891 181.423 172.782 181.676 171.659 181.679Z" fill="#58251C"/>
<path d="M171.659 181.679H97.3991C96.2759 181.676 95.1676 181.423 94.1539 180.939C93.1403 180.455 92.2468 179.752 91.5378 178.881C90.8288 178.01 90.322 176.992 90.0541 175.902C89.7861 174.811 89.7636 173.674 89.9883 172.574L90.9494 167.95C91.3721 165.946 92.4717 164.148 94.0634 162.858C95.6551 161.569 97.6421 160.866 99.6907 160.868H169.368C171.416 160.867 173.403 161.57 174.994 162.859C176.586 164.149 177.685 165.946 178.109 167.95L179.07 172.574C179.295 173.674 179.272 174.811 179.004 175.902C178.736 176.992 178.23 178.01 177.521 178.881C176.812 179.752 175.918 180.455 174.904 180.939C173.891 181.423 172.783 181.676 171.659 181.679Z" fill="#6D3528"/>
<path d="M107.855 47.1056V140.523H93.2354V47.1056C93.2347 46.1453 93.4233 45.1942 93.7903 44.3068C94.1574 43.4193 94.6957 42.6129 95.3745 41.9336C96.0533 41.2543 96.8594 40.7155 97.7466 40.3478C98.6337 39.9801 99.5847 39.7909 100.545 39.7909C101.138 39.7914 101.729 39.8628 102.305 40.0034C103.892 40.3906 105.302 41.299 106.311 42.583C107.32 43.867 107.869 45.4524 107.87 47.0854L107.855 47.1056Z" fill="#9F5925"/>
<path d="M107.855 47.1056V140.523H96.7568V47.1056C96.7622 45.4738 97.3127 43.8906 98.3209 42.6074C99.3291 41.3243 100.737 40.4149 102.321 40.0236C103.908 40.4108 105.318 41.3192 106.327 42.6032C107.336 43.8872 107.885 45.4726 107.886 47.1056H107.855Z" fill="#AE6025"/>
<path d="M107.855 168.047V198.737H93.2354V168.047C93.2354 166.721 96.5083 165.644 100.545 165.644C101.152 165.644 101.744 165.669 102.305 165.714C103.464 165.794 104.61 166.006 105.72 166.347C107.04 166.782 107.855 167.384 107.855 168.047Z" fill="#9F5925"/>
<path d="M107.855 168.046V198.737H96.7568V168.046C96.7568 166.918 99.1192 165.972 102.321 165.714C103.48 165.794 104.626 166.006 105.736 166.347C107.041 166.782 107.855 167.384 107.855 168.046Z" fill="#AE6025"/>
<path d="M107.855 140.523V154.14L103.611 157.681C103.222 158.009 102.781 158.269 102.306 158.45C101.507 158.765 100.638 158.86 99.7903 158.724C98.9424 158.589 98.1462 158.229 97.4849 157.681L93.2407 154.14V140.523H107.855Z" fill="#9F5925"/>
<path d="M107.856 140.523V154.14L103.612 157.681C103.222 158.009 102.781 158.269 102.306 158.45C101.833 158.268 101.394 158.008 101.006 157.681L96.7622 154.14V140.523H107.856Z" fill="#AE6025"/>
<path d="M107.855 198.297V211.915L103.611 215.456C103.22 215.781 102.78 216.041 102.306 216.225C101.507 216.539 100.638 216.634 99.7903 216.499C98.9424 216.363 98.1462 216.003 97.4849 215.456L93.2407 211.915V198.297H107.855Z" fill="#9F5925"/>
<path d="M107.856 198.297V211.915L103.612 215.456C103.221 215.781 102.78 216.041 102.306 216.225C101.834 216.041 101.395 215.781 101.006 215.456L96.7622 211.915V198.297H107.856Z" fill="#AE6025"/>
<path d="M91.0547 128.043V146.998H110.024V128.043H91.0547ZM106.322 143.305H94.7576V131.731H106.337L106.322 143.305Z" fill="#F2CF35"/>
<path d="M91.0547 188.463V207.402H110.024V188.463H91.0547ZM106.322 203.725H94.7576V192.151H106.337L106.322 203.725Z" fill="#F2CF35"/>
<path d="M166.889 168.047V198.737H152.265V168.047C152.265 166.721 155.538 165.644 159.575 165.644C160.182 165.644 160.774 165.669 161.335 165.714C162.494 165.794 163.639 166.006 164.75 166.347C166.07 166.782 166.889 167.384 166.889 168.047Z" fill="#9F5925"/>
<path d="M166.888 168.046V198.737H155.805V168.046C155.805 166.918 158.167 165.972 161.369 165.714C162.528 165.794 163.674 166.006 164.784 166.347C166.069 166.782 166.888 167.384 166.888 168.046Z" fill="#AE6025"/>
<path d="M166.888 198.297V211.915L162.639 215.456C162.248 215.781 161.807 216.041 161.334 216.225C160.535 216.539 159.666 216.634 158.818 216.499C157.97 216.363 157.174 216.003 156.513 215.456L152.269 211.915V198.297H166.888Z" fill="#9F5925"/>
<path d="M166.889 198.297V211.915L162.64 215.456C162.249 215.781 161.809 216.041 161.335 216.225C160.862 216.041 160.423 215.781 160.035 215.456L155.791 211.915V198.297H166.889Z" fill="#AE6025"/>
<path d="M150.1 188.463V207.402H169.054V188.463H150.1ZM165.367 203.725H153.782V192.151H165.367V203.725Z" fill="#F2CF35"/>
<path d="M169.863 47.1056V140.523H155.244V47.1056C155.243 46.1453 155.432 45.1942 155.799 44.3068C156.166 43.4193 156.704 42.6129 157.383 41.9336C158.062 41.2543 158.868 40.7155 159.755 40.3478C160.643 39.9801 161.593 39.7909 162.554 39.7909C163.147 39.7914 163.738 39.8628 164.314 40.0034C165.899 40.3931 167.308 41.3021 168.317 42.5856C169.325 43.869 169.875 45.4531 169.879 47.0854L169.863 47.1056Z" fill="#9F5925"/>
<path d="M169.863 47.1056V140.523H158.764V47.1056C158.769 45.4736 159.319 43.8899 160.327 42.6066C161.335 41.3233 162.744 40.4141 164.329 40.0236C165.914 40.4133 167.323 41.3223 168.331 42.6058C169.34 43.8892 169.889 45.4733 169.893 47.1056H169.863Z" fill="#AE6025"/>
<path d="M169.971 140.523V154.14L165.727 157.681C165.338 158.009 164.896 158.269 164.421 158.45C163.623 158.765 162.754 158.86 161.906 158.724C161.058 158.589 160.262 158.229 159.601 157.681L155.356 154.14V140.523H169.971Z" fill="#9F5925"/>
<path d="M169.97 140.523V154.14L165.726 157.681C165.337 158.009 164.896 158.269 164.421 158.45C163.948 158.268 163.508 158.008 163.121 157.681L158.876 154.14V140.523H169.97Z" fill="#AE6025"/>
<path d="M153.079 128.043V146.998H172.034V128.043H153.079ZM168.341 143.305H156.767V131.731H168.341V143.305Z" fill="#F2CF35"/>
</svg>
