<svg width="33" height="33" viewBox="0 0 33 33" fill="none" xmlns="http://www.w3.org/2000/svg">
<path d="M16.1649 3.0603C8.72903 3.0603 2.69409 9.09524 2.69409 16.5311C2.69409 23.967 8.72903 30.002 16.1649 30.002C23.6008 30.002 29.6358 23.967 29.6358 16.5311C29.6358 9.09524 23.6008 3.0603 16.1649 3.0603ZM18.0643 24.7349V27.3078H14.4676V24.7079C12.1641 24.223 10.2108 22.7412 10.0626 20.1278H12.7029C12.8376 21.5423 13.8075 22.6469 16.2727 22.6469C18.913 22.6469 19.5057 21.3268 19.5057 20.505C19.5057 19.387 18.913 18.3362 15.909 17.6223C12.5682 16.814 10.2782 15.44 10.2782 12.6785C10.2782 10.3615 12.1506 8.85276 14.4676 8.35434V5.75447H18.0643V8.38128C20.5699 8.98747 21.8227 10.8869 21.9035 12.9479H19.2632C19.1959 11.4526 18.4011 10.4288 16.2727 10.4288C14.2521 10.4288 13.0397 11.3449 13.0397 12.6381C13.0397 13.7696 13.9153 14.5105 16.6364 15.211C19.3575 15.9115 22.2672 17.0834 22.2672 20.4781C22.2537 22.9433 20.4082 24.2903 18.0643 24.7349Z" fill="white"/>
</svg>
