<svg width="259" height="259" viewBox="0 0 259 259" fill="none" xmlns="http://www.w3.org/2000/svg">
<g clip-path="url(#clip0)">
<path d="M237.265 179.486H21.7334C16.1457 179.486 11.6162 174.957 11.6162 169.369V132.123C11.6162 126.535 16.1457 122.006 21.7334 122.006H237.265C242.853 122.006 247.383 126.535 247.383 132.123V169.369C247.382 174.957 242.853 179.486 237.265 179.486Z" fill="#C59191"/>
<path d="M237.265 122.006H222.089C227.677 122.006 232.206 126.535 232.206 132.123V169.369C232.206 174.957 227.677 179.486 222.089 179.486H237.265C242.852 179.486 247.382 174.957 247.382 169.369V132.123C247.382 126.535 242.852 122.006 237.265 122.006Z" fill="#B98080"/>
<path d="M211.327 122.006H226.503V179.486H211.327V122.006Z" fill="#EAF6FF"/>
<path d="M32.4966 122.006H47.6724V179.486H32.4966V122.006Z" fill="#EAF6FF"/>
<path d="M219.542 240.03V191.592C219.542 177.34 209.626 165.007 195.705 161.948L158.437 153.757C153.797 152.737 150.492 148.627 150.492 143.876V113.06H108.505V143.876C108.505 148.626 105.2 152.737 100.56 153.757L63.2916 161.948C49.3724 165.007 39.4561 177.34 39.4561 191.592V240.03H219.542Z" fill="#FFE180"/>
<path d="M158.438 153.757C153.798 152.737 150.492 148.627 150.492 143.876V113.06H108.506V143.876C108.506 148.626 105.201 152.737 100.561 153.757L129.499 184.109L158.438 153.757Z" fill="#FFCEBF"/>
<path d="M154.119 151.637C151.88 149.763 150.492 146.954 150.492 143.876V113.06L135.316 120.647V151.463C135.316 156.214 138.622 160.325 143.262 161.345L144.204 161.552" fill="#FFB09E"/>
<path d="M144.204 161.552L180.53 169.536C194.45 172.595 204.366 184.928 204.366 199.18V240.03H219.542V191.592C219.542 177.34 209.626 165.007 195.706 161.948L158.437 153.757C156.804 153.398 155.336 152.656 154.119 151.637" fill="#FBD270"/>
<path d="M172.291 66.1816V99.5684C172.291 111.385 167.5 122.084 159.761 129.824C152.016 137.569 141.317 142.359 129.5 142.359C121.502 142.359 114.021 140.164 107.617 136.344C106.63 135.763 105.674 135.135 104.743 134.473C93.832 126.723 86.7095 113.975 86.7095 99.5684V66.1816H172.291Z" fill="#FFCEBF"/>
<path d="M172.291 66.1816V99.5684C172.291 111.385 167.5 122.084 159.76 129.824C152.016 137.569 141.317 142.359 129.5 142.359C121.502 142.359 114.021 140.164 107.616 136.344C106.655 135.712 105.699 135.09 104.743 134.473C119.853 140.669 136.622 137.715 147.018 127.168C157.55 116.474 157.231 102.351 157.115 99.5684V66.1816H172.291Z" fill="#FFB09E"/>
<path d="M172.29 54.6242H86.7095V27.3422C86.7095 14.3371 97.2526 3.79395 110.258 3.79395H148.742C161.747 3.79395 172.29 14.3371 172.29 27.3422V54.6242Z" fill="#C59191"/>
<path d="M148.741 3.79395H133.565C146.571 3.79395 157.114 14.3371 157.114 27.3422V54.6242H172.289V27.3422C172.289 14.3371 161.746 3.79395 148.741 3.79395Z" fill="#B98080"/>
<path d="M75.1264 72.2853H183.873C186.914 72.2853 189.378 69.8203 189.378 66.7801V60.1295C189.378 57.0888 186.913 54.6243 183.873 54.6243H75.1264C72.0856 54.6243 69.6211 57.0893 69.6211 60.1295V66.7801C69.6211 69.8203 72.0856 72.2853 75.1264 72.2853Z" fill="#685E68"/>
<path d="M183.873 54.6243H168.697C171.737 54.6243 174.202 57.0893 174.202 60.1295V66.7796C174.202 69.8203 171.737 72.2848 168.697 72.2848H183.873C186.913 72.2848 189.378 69.8198 189.378 66.7796V60.1295C189.378 57.0888 186.913 54.6243 183.873 54.6243Z" fill="#554E56"/>
<path d="M177.546 92.4846H172.29V72.2852H177.546C183.124 72.2852 187.645 76.807 187.645 82.3846C187.645 87.9627 183.124 92.4846 177.546 92.4846Z" fill="#FFCEBF"/>
<path d="M81.454 92.4846H86.7099V72.2852H81.454C75.8759 72.2852 71.3545 76.807 71.3545 82.3846C71.3545 87.9627 75.8764 92.4846 81.454 92.4846Z" fill="#FFB09E"/>
<path d="M170.754 156.464L158.438 153.757C156.805 153.398 155.342 152.65 154.125 151.631L130.215 175.541C129.82 175.936 129.179 175.936 128.784 175.541L104.874 151.631C103.658 152.65 102.195 153.398 100.561 153.757L88.2446 156.464L122.345 190.565C126.296 194.516 132.702 194.516 136.653 190.565L170.754 156.464Z" fill="#82AEE3"/>
<path d="M144.204 161.552L161.799 165.419L170.754 156.463L158.438 153.757C156.805 153.397 155.336 152.655 154.119 151.637L144.204 161.552Z" fill="#528FD8"/>
<path d="M35.4858 259C32.692 259 30.4272 256.735 30.4272 253.941V196.309C30.4272 192.605 34.3952 190.157 37.8517 191.729L79.963 210.886V259H35.4858Z" fill="#8DDAA7"/>
<path d="M179.033 210.888V259H79.9653V210.888L125.073 190.365C126.474 189.728 127.987 189.409 129.499 189.409C131.012 189.409 132.524 189.728 133.925 190.365L179.033 210.888Z" fill="#8DDAA7"/>
<path d="M179.035 259V210.887L221.146 191.729C224.602 190.157 228.57 192.605 228.57 196.31V253.941C228.57 256.735 226.306 259 223.512 259H179.035Z" fill="#B0E6A0"/>
<path d="M221.146 191.729L213.283 195.306C213.35 195.629 213.395 195.962 213.395 196.309V253.941C213.395 256.735 211.13 259 208.336 259H223.512C226.306 259 228.571 256.735 228.571 253.941V196.309C228.571 192.605 224.602 190.157 221.146 191.729Z" fill="#8DDAA7"/>
<path d="M129.499 189.409V259H79.9653V210.888L125.073 190.365C126.474 189.728 127.987 189.409 129.499 189.409Z" fill="#B0E6A0"/>
<path d="M237.397 247.618H222.623C217.742 247.618 213.784 243.661 213.784 238.779V220.55C213.784 215.669 217.742 211.711 222.623 211.711H237.397C239.065 211.711 240.502 212.874 240.859 214.504C241.836 218.97 242.616 224.598 242.486 231.088C242.38 236.35 241.7 240.984 240.859 244.826C240.503 246.456 239.066 247.618 237.397 247.618Z" fill="#FFCEBF"/>
<path d="M240.859 214.504C240.502 212.874 239.065 211.711 237.397 211.711H222.623C222.537 211.711 222.454 211.722 222.369 211.724C223.973 211.791 225.338 212.923 225.684 214.503C226.66 218.97 227.441 224.597 227.31 231.087C227.205 236.35 226.525 240.983 225.684 244.825C225.338 246.406 223.973 247.537 222.37 247.604C222.455 247.607 222.538 247.617 222.623 247.617H237.397C239.066 247.617 240.503 246.455 240.859 244.825C241.7 240.983 242.38 236.349 242.486 231.087C242.616 224.598 241.836 218.97 240.859 214.504Z" fill="#FFB09E"/>
<path d="M21.6013 247.618H36.3754C41.2569 247.618 45.2143 243.661 45.2143 238.779V220.55C45.2143 215.669 41.2569 211.711 36.3754 211.711H21.6018C19.9335 211.711 18.4963 212.874 18.1397 214.504C17.1629 218.97 16.3823 224.598 16.5128 231.088C16.6186 236.35 17.2984 240.984 18.1392 244.826C18.4958 246.456 19.9335 247.618 21.6013 247.618Z" fill="#FFCEBF"/>
<path d="M36.3755 211.711H21.6018C21.5518 211.711 21.5037 211.722 21.4536 211.724C26.2168 211.859 30.0386 215.754 30.0386 220.55V238.78C30.0386 243.575 26.2168 247.47 21.4536 247.605C21.5037 247.607 21.5512 247.618 21.6013 247.618H36.3755C41.257 247.618 45.2143 243.661 45.2143 238.779V220.55C45.2143 215.669 41.257 211.711 36.3755 211.711Z" fill="#FFB09E"/>
<path d="M237.268 118.214H172.203C175.15 111.446 176.402 103.809 176.084 96.2787C184.094 96.7198 191.439 90.822 191.439 82.3853C191.439 79.4725 190.536 76.7677 188.998 74.5318C191.51 72.865 193.172 70.0145 193.172 66.78V60.13C193.172 55.0021 189 50.8308 183.873 50.8308H176.083V27.3422C176.084 12.2656 163.818 0 148.742 0H110.258C95.1812 0 82.9156 12.2656 82.9156 27.3422V50.8303H75.1264C69.9985 50.8303 65.8272 55.0021 65.8272 60.1295V66.7795C65.8272 70.014 67.489 72.8645 70.0011 74.5313C68.4632 76.7672 67.5603 79.472 67.5603 82.3848C67.5603 90.4851 74.7359 97.0769 82.9151 96.2782C82.2019 103.4 84.0897 111.941 86.8143 118.214H21.7314C14.0606 118.214 7.82031 124.454 7.82031 132.125V169.366C7.82031 177.037 14.0606 183.277 21.7314 183.277H36.7013C36.3553 184.652 36.0933 186.048 35.9198 187.459C34.1038 187.402 32.2872 187.887 30.7044 188.905C28.1549 190.546 26.6332 193.313 26.6332 196.308V207.917H21.6025C18.1803 207.917 15.1659 210.346 14.4339 213.692C13.1794 219.43 12.6027 225.308 12.7201 231.164C12.8172 236.017 13.3939 240.887 14.4334 245.637C15.1659 248.983 18.1808 251.412 21.6019 251.412H26.6332V255.206C26.6332 257.301 28.3319 259 30.4272 259C32.5224 259 34.2211 257.301 34.2211 255.206V251.412H36.3766C43.3423 251.412 49.0094 245.745 49.0094 238.779V220.55C49.0094 213.584 43.3423 207.917 36.3766 207.917H34.2216V196.309C34.2722 195.308 35.1883 194.731 36.283 195.184L76.1725 213.33V255.206C76.1725 257.301 77.8712 259 79.9665 259C82.0617 259 83.7604 257.301 83.7604 255.206V213.328L125.706 194.246V255.206C125.706 257.301 127.405 259 129.5 259C131.596 259 133.294 257.301 133.294 255.206V194.245C134.226 194.706 174.24 212.844 175.242 213.329V255.206C175.242 257.301 176.941 259 179.036 259C181.131 259 182.83 257.301 182.83 255.206V213.329L222.719 195.184C223.834 194.735 224.727 195.308 224.779 196.309V207.917H222.624C215.658 207.917 209.991 213.584 209.991 220.55V238.78C209.991 245.745 215.658 251.413 222.624 251.413H224.779V255.207C224.779 257.302 226.478 259 228.573 259C230.669 259 232.367 257.302 232.367 255.207V251.412H237.399C240.82 251.412 243.835 248.983 244.567 245.637C245.607 240.887 246.183 236.017 246.28 231.164C246.398 225.308 245.822 219.43 244.567 213.693C243.835 210.346 240.82 207.917 237.398 207.917H232.367V196.309C232.367 193.314 230.845 190.546 228.296 188.906C226.713 187.887 224.897 187.402 223.081 187.459C222.907 186.048 222.645 184.652 222.299 183.278H237.269C244.94 183.278 251.18 177.038 251.18 169.367V132.125C251.179 124.455 244.939 118.214 237.268 118.214ZM28.7027 175.69H21.7314C18.2446 175.69 15.4082 172.854 15.4082 169.367V132.125C15.4082 128.639 18.2446 125.802 21.7314 125.802H28.7027V175.69ZM36.3761 215.505C39.1578 215.505 41.421 217.768 41.421 220.55V238.78C41.421 241.562 39.1578 243.825 36.3761 243.825H21.8043C20.8963 239.617 20.3924 235.308 20.3064 231.012C20.2017 225.816 20.7061 220.6 21.8048 215.506H36.3761V215.505ZM237.195 215.505C238.293 220.6 238.797 225.816 238.693 231.012C238.607 235.307 238.103 239.617 237.195 243.824H222.623C219.842 243.824 217.578 241.561 217.578 238.779V220.55C217.578 217.768 219.842 215.505 222.623 215.505H237.195V215.505ZM207.534 125.802V162.805C204.174 160.665 200.447 159.103 196.521 158.24L159.252 150.05C156.375 149.42 154.287 146.824 154.287 143.877V139.015C157.205 137.174 159.944 135.006 162.443 132.507C164.524 130.426 166.375 128.179 168.001 125.803H207.534V125.802ZM176.084 88.6908V76.0792C179.981 75.4843 183.851 78.2999 183.851 82.3848C183.851 86.3952 180.018 89.3125 176.084 88.6908ZM90.5035 27.3422C90.5035 16.4495 99.3652 7.58789 110.258 7.58789H148.742C159.634 7.58789 168.496 16.4495 168.496 27.3422V50.8303H90.5035V27.3422ZM82.9151 88.6908C78.929 89.1734 75.1482 86.5687 75.1482 82.3853C75.1482 78.3177 79.0367 75.4975 82.9151 76.0797V88.6908ZM75.1264 68.4913C74.1825 68.4913 73.4151 67.7234 73.4151 66.78V60.13C73.4151 59.1861 74.183 58.4187 75.1264 58.4187H183.873C184.817 58.4187 185.584 59.1866 185.584 60.13V66.78C185.584 67.7239 184.816 68.4913 183.873 68.4913H120.236C118.141 68.4913 116.442 70.19 116.442 72.2853C116.442 74.3805 118.141 76.0792 120.236 76.0792H168.496V99.5683C168.502 110.028 164.39 119.828 157.078 127.141C154.551 129.668 151.733 131.795 148.708 133.513C142.836 136.847 136.465 138.565 129.5 138.565C107.997 138.565 90.503 121.071 90.503 99.5683V76.0792H102.531C104.627 76.0792 106.325 74.3805 106.325 72.2853C106.325 70.19 104.627 68.4913 102.531 68.4913H75.1264ZM148.963 151.428L129.5 170.891L110.037 151.428C111.657 148.947 112.437 145.91 112.301 142.861C117.624 144.984 123.428 146.153 129.5 146.153C135.487 146.153 141.297 145.02 146.699 142.876C146.439 145.821 147.412 149.046 148.963 151.428ZM51.4659 125.802H91.0246C94.6334 131.078 99.2984 135.577 104.712 138.993V143.877C104.712 146.824 102.624 149.42 99.7446 150.051L62.4779 158.24C58.5519 159.103 54.8253 160.665 51.4654 162.805V125.802H51.4659ZM39.605 175.69H36.2906V125.802H43.8785V169.384C42.2132 171.322 40.7872 173.441 39.605 175.69ZM79.964 206.719L43.3028 190.042C44.0004 178.316 52.5307 168.196 64.1078 165.651L87.0333 160.613L116.512 190.092L79.964 206.719ZM179.036 206.719L142.488 190.092L149.656 182.924C151.137 181.443 151.137 179.04 149.656 177.559C148.174 176.078 145.772 176.078 144.291 177.559L135.104 186.746C131.518 185.24 127.481 185.24 123.895 186.746L95.8297 158.68L101.371 157.463C102.406 157.236 103.388 156.884 104.318 156.442L126.1 178.224C127.008 179.132 128.215 179.632 129.499 179.632C130.783 179.632 131.991 179.132 132.897 178.224L154.68 156.442C155.609 156.884 156.591 157.236 157.625 157.462L163.169 158.68L156.929 164.92C155.448 166.402 155.448 168.804 156.929 170.285C158.411 171.767 160.813 171.767 162.295 170.285L171.966 160.614L194.891 165.652C206.468 168.197 214.999 178.317 215.696 190.042L179.036 206.719ZM222.709 175.69H219.394C218.214 173.443 216.784 171.32 215.121 169.384V125.802H222.709V175.69H222.709ZM243.591 169.367C243.591 172.854 240.755 175.69 237.268 175.69H230.297V125.802H237.268C240.755 125.802 243.591 128.639 243.591 132.125V169.367ZM150.145 96.7755C152.24 96.7755 153.939 95.0768 153.939 92.9815V84.7234C153.939 82.6281 152.24 80.9294 150.145 80.9294C148.05 80.9294 146.351 82.6281 146.351 84.7234V92.9815C146.351 95.0768 148.05 96.7755 150.145 96.7755ZM105.061 84.7234V92.9815C105.061 95.0768 106.759 96.7755 108.855 96.7755C110.95 96.7755 112.649 95.0768 112.649 92.9815V84.7234C112.649 82.6281 110.95 80.9294 108.855 80.9294C106.759 80.9294 105.061 82.6281 105.061 84.7234ZM119.417 120.499C121.521 121.653 124.94 123.039 129.28 123.084C133.656 123.13 137.421 121.684 139.582 120.499C141.419 119.491 142.092 117.185 141.084 115.348C140.076 113.511 137.77 112.839 135.933 113.846C134.53 114.615 132.247 115.528 129.36 115.496C126.592 115.467 124.409 114.583 123.066 113.846C121.228 112.838 118.923 113.51 117.915 115.348C116.907 117.185 117.58 119.491 119.417 120.499Z" fill="black"/>
</g>
<defs>
<clipPath id="clip0">
<rect width="259" height="259" fill="white"/>
</clipPath>
</defs>
</svg>
