<svg width="259" height="259" viewBox="0 0 259 259" fill="none" xmlns="http://www.w3.org/2000/svg">
<path d="M259 129.5C259 165.26 244.505 197.635 221.07 221.07C197.635 244.505 165.26 259 129.5 259C93.7398 259 61.3648 244.505 37.9298 221.07C14.4949 197.635 0 165.26 0 129.5C0 93.7398 14.4949 61.3648 37.9298 37.9298C61.3648 14.4949 93.7398 0 129.5 0C165.26 0 197.635 14.4949 221.07 37.9298C244.505 61.3648 259 93.7398 259 129.5Z" fill="#4A4B9B"/>
<path d="M248.605 49.3983V114.937V180.476C248.605 181.249 248.357 181.976 247.925 182.57C247.494 183.165 246.879 183.626 246.146 183.866L217.283 193.244L188.42 202.623C187.944 202.778 187.457 202.895 186.965 202.974C186.474 203.053 185.977 203.094 185.481 203.097C184.985 203.1 184.488 203.064 183.996 202.99C183.504 202.917 183.015 202.804 182.536 202.651L157.546 194.824L132.556 186.997C131.913 186.794 131.252 186.662 130.587 186.598C129.922 186.535 129.252 186.54 128.59 186.614C128.282 186.648 127.976 186.696 127.672 186.759C127.368 186.822 127.066 186.902 126.767 186.997L101.752 194.833L76.736 202.669C76.265 202.818 75.7855 202.93 75.3019 203.004C74.8183 203.077 74.3301 203.114 73.8425 203.114C73.3518 203.114 72.8621 203.077 72.378 203.004C71.8939 202.93 71.4138 202.818 70.9429 202.669L41.0056 193.259L11.0678 183.849C10.3263 183.615 9.70253 183.154 9.26496 182.557C8.82689 181.959 8.57446 181.226 8.57446 180.448V114.897V49.3472C8.57446 48.1458 9.15823 47.1164 10.0293 46.4775C10.9004 45.8386 12.0578 45.5902 13.2061 45.9514L42.0664 55.0225L70.9267 64.0935C71.4007 64.2433 71.8843 64.3545 72.3724 64.4284C72.8606 64.5023 73.3528 64.5392 73.8435 64.5392C74.3342 64.5392 74.8248 64.5012 75.3115 64.4249C75.7981 64.3485 76.2802 64.2347 76.7542 64.0824L101.745 56.1622L126.735 48.2419C127.04 48.1458 127.347 48.0644 127.657 47.9981C127.966 47.9318 128.278 47.8812 128.591 47.8473C129.262 47.774 129.938 47.7699 130.607 47.8352C131.276 47.901 131.939 48.036 132.585 48.2419L157.553 56.1566L182.52 64.0713C183.002 64.2235 183.494 64.3379 183.988 64.4132C184.484 64.4886 184.982 64.5255 185.482 64.5225C185.981 64.5195 186.48 64.479 186.974 64.3996C187.469 64.3207 187.958 64.2033 188.437 64.0485L216.189 55.0311L243.94 46.0136C245.091 45.6383 246.258 45.8796 247.136 46.5169C248.014 47.1543 248.605 48.1883 248.605 49.3983Z" fill="white"/>
<path d="M185.48 64.5221V133.81V203.097C184.984 203.1 184.487 203.065 183.995 202.991C183.503 202.917 183.015 202.804 182.535 202.652L157.545 194.825L132.555 186.998C131.912 186.795 131.251 186.662 130.586 186.599C129.921 186.535 129.251 186.541 128.589 186.614V117.23V47.8469C129.26 47.7736 129.935 47.7695 130.604 47.8348C131.274 47.9005 131.936 48.0356 132.582 48.2415L157.55 56.1562L182.518 64.0708C183 64.2231 183.491 64.3374 183.986 64.4128C184.482 64.4882 184.981 64.5251 185.48 64.5221Z" fill="#CCCCCC"/>
<path d="M73.843 64.5392V133.827V203.114C73.3523 203.114 72.8626 203.077 72.3785 203.004C71.8944 202.93 71.4143 202.818 70.9434 202.669L41.0056 193.259L11.0678 183.849C10.3263 183.615 9.70253 183.154 9.26496 182.557C8.82689 181.959 8.57446 181.226 8.57446 180.448V114.897V49.3472C8.57446 48.1458 9.15823 47.1164 10.0293 46.4775C10.9004 45.8386 12.0578 45.5902 13.2061 45.9514L42.0664 55.0225L70.9267 64.0935C71.4007 64.2433 71.8843 64.3545 72.3724 64.4284C72.8606 64.5023 73.3523 64.5392 73.843 64.5392Z" fill="#CCCCCC"/>
<path d="M73.8379 194.669L45.9271 185.761L18.0164 176.854V116.677V56.5001L45.9271 65.4078L73.8379 74.3155V134.493V194.669Z" fill="#00B764"/>
<path d="M185.483 194.669L213.394 185.761L241.304 176.854V116.677V56.5001L213.394 65.4078L185.483 74.3155V134.493V194.669Z" fill="#5BDDA2"/>
<path d="M185.483 194.669L157.572 185.761L129.661 176.854V116.677V56.5001L157.572 65.4078L185.483 74.3155V134.493V194.669Z" fill="#4ACE99"/>
<path d="M73.8386 194.669L101.749 185.761L129.66 176.854V116.677V56.5001L101.749 65.4078L73.8386 74.3155V134.493V194.669Z" fill="#38C689"/>
<path d="M18.0164 56.4995V116.677V176.854L45.9282 185.761L73.84 194.669V153.652V112.635C56.1217 98.2906 42.1661 84.2565 32.6397 73.809C23.1134 63.3615 18.0164 56.4995 18.0164 56.4995Z" fill="#04A558"/>
<path d="M185.481 170.532V182.601V194.67L213.393 185.762L241.305 176.854C231.525 177.041 221.969 176.541 212.658 175.454C203.347 174.366 194.281 172.693 185.481 170.532Z" fill="#55CE94"/>
<path d="M129.657 149.365V163.109V176.854L157.569 185.761L185.481 194.669V182.6V170.531C175.447 168.068 165.757 164.973 156.443 161.395C147.129 157.818 138.191 153.758 129.657 149.365Z" fill="#48C18D"/>
<path d="M73.8403 112.636V153.653V194.669L101.749 185.762L129.658 176.854V163.11V149.366C119.018 143.893 109.008 137.902 99.6862 131.684C90.3642 125.465 81.7297 119.019 73.8403 112.636Z" fill="#39B77E"/>
<path d="M61.8586 125.585C61.8586 125.585 60.8322 119.871 63.7829 114.303C66.7336 108.734 73.6608 103.31 89.5675 103.888C89.5675 103.888 93.5441 99.9498 97.7134 98.7363C101.883 97.5227 106.244 99.0332 107.014 109.931C107.014 109.931 112.145 111.404 115.031 115.057C117.918 118.711 118.559 124.545 109.579 133.268C109.579 133.268 108.94 138.366 106.088 142.928C103.236 147.489 98.1702 151.514 89.3161 149.366C89.3161 149.366 79.7579 150.736 71.5463 148.449C63.3352 146.161 56.4707 140.216 61.8586 125.585Z" fill="#41C2E5"/>
<path d="M73.8389 105.894V127.423V148.951C69.2694 148.048 64.8027 146.191 62.2142 142.564C59.6257 138.936 58.915 133.537 61.8576 125.547C61.8576 125.547 61.2187 121.993 62.3968 117.759C63.575 113.525 66.5702 108.611 73.8389 105.894Z" fill="#40B2CC"/>
<path d="M223.494 88.3232C223.494 88.3232 220.287 86.2805 216.054 87.2052C211.82 88.1294 206.561 92.021 202.456 103.888C202.456 103.888 201.302 108.089 197.517 110.189C193.733 112.29 187.319 112.29 176.8 103.888C176.8 103.888 170.642 101.931 165.575 103.967C160.508 106.003 156.532 112.033 160.893 128.005C160.893 128.005 157.044 134.163 156.596 139.912C156.147 145.66 159.097 151.001 172.695 149.366C172.695 149.366 177.955 156.693 185.395 160.829C192.836 164.965 202.457 165.911 211.18 153.149C211.18 153.149 216.824 150.494 221.507 145.722C226.189 140.95 229.909 134.058 226.061 125.585C226.061 125.585 232.218 119.529 234.977 111.844C237.734 104.158 237.092 94.8427 223.494 88.3232Z" fill="#41C2E5"/>
<path d="M185.481 109.584V135.282V160.98C181.738 158.914 178.541 156.036 176.28 153.674C174.019 151.311 172.694 149.465 172.694 149.465C159.096 151.102 156.146 145.762 156.594 140.012C157.043 134.263 160.892 128.104 160.892 128.104C156.53 112.133 160.507 106.104 165.574 104.067C170.641 102.03 176.798 103.987 176.798 103.987C178.438 105.296 179.977 106.4 181.422 107.325C182.868 108.249 184.218 108.994 185.481 109.584Z" fill="#40B2CC"/>
<path d="M27.4787 159.648C27.4787 159.648 28.6214 154.592 31.4987 151.717C34.3761 148.842 38.9885 148.148 45.9274 156.871C45.9274 156.871 50.8727 159.885 53.3453 163.556C55.8179 167.227 55.8179 171.555 45.9279 174.187C45.9279 174.187 38.1083 176.121 31.8928 175.271C25.6773 174.42 21.0649 170.786 27.4787 159.648Z" fill="#40B2CC"/>
<path d="M225.543 103.515C226.141 104.992 226.023 106.595 225.35 107.993C224.677 109.391 223.448 110.585 221.824 111.242C220.2 111.899 218.487 111.895 217.031 111.358C215.575 110.821 214.376 109.75 213.779 108.274C213.181 106.797 213.299 105.194 213.972 103.796C214.645 102.398 215.874 101.204 217.498 100.547C219.122 99.8902 220.835 99.8938 222.291 100.431C223.747 100.968 224.946 102.039 225.543 103.515Z" fill="#5BD3EF"/>
<path d="M102.787 110.256C103.384 111.733 103.266 113.336 102.594 114.734C101.92 116.132 100.692 117.326 99.0678 117.983C97.4434 118.64 95.7306 118.636 94.2747 118.099C92.8189 117.562 91.6195 116.492 91.0226 115.015C90.4251 113.538 90.543 111.935 91.2158 110.537C91.8891 109.139 93.1173 107.946 94.7416 107.288C96.366 106.631 98.0788 106.635 99.5347 107.172C100.99 107.709 102.189 108.78 102.787 110.256Z" fill="#5BD3EF"/>
<path d="M96.3822 132.079C97.188 134.072 97.0297 136.235 96.1212 138.122C95.2132 140.008 93.555 141.619 91.3631 142.505C89.1712 143.392 86.8599 143.387 84.8952 142.662C82.9304 141.937 81.3122 140.493 80.5063 138.5C79.7005 136.508 79.8588 134.344 80.7673 132.458C81.6759 130.572 83.3336 128.961 85.5255 128.074C87.7173 127.187 90.0286 127.192 91.9934 127.917C93.9576 128.642 95.5759 130.086 96.3822 132.079Z" fill="#5BD3EF"/>
<path d="M212.384 131.743C213.274 133.944 213.098 136.334 212.095 138.418C211.092 140.503 209.26 142.281 206.839 143.261C204.417 144.24 201.864 144.235 199.694 143.435C197.523 142.634 195.736 141.038 194.845 138.837C193.955 136.635 194.13 134.246 195.133 132.161C196.136 130.076 197.968 128.298 200.39 127.318C202.811 126.339 205.364 126.344 207.535 127.144C209.706 127.946 211.493 129.541 212.384 131.743Z" fill="#5BD3EF"/>
<path d="M106.916 78.3503C107.383 80.014 106.685 81.8346 105.179 83.4331C103.673 85.0316 101.36 86.4081 98.5947 87.1841C95.8301 87.9596 93.138 87.9879 91.0204 87.4056C88.9029 86.8239 87.3595 85.6321 86.8931 83.9683C86.4262 82.3046 87.1243 80.484 88.6302 78.8855C90.1362 77.2869 92.4495 75.9105 95.2145 75.1345C97.979 74.359 100.671 74.3307 102.789 74.9129C104.906 75.4947 106.449 76.6865 106.916 78.3503Z" fill="#00B764"/>
<path d="M44.5562 97.2314C45.0231 98.8951 44.325 100.716 42.8191 102.314C41.3132 103.913 38.9999 105.289 36.2348 106.065C33.4703 106.841 30.7781 106.869 28.6606 106.287C26.5431 105.705 24.9997 104.513 24.5333 102.849C24.0669 101.186 24.7645 99.3651 26.2704 97.7666C27.7764 96.168 30.0897 94.7916 32.8547 94.0156C35.6192 93.2401 38.3114 93.2118 40.4289 93.794C42.5464 94.3758 44.0898 95.5676 44.5562 97.2314Z" fill="#048E49"/>
<path d="M124.584 96.5004C124.897 97.6158 124.429 98.8365 123.42 99.9084C122.41 100.98 120.859 101.903 119.005 102.424C117.152 102.944 115.346 102.962 113.927 102.572C112.507 102.182 111.472 101.383 111.159 100.268C110.846 99.1521 111.314 97.9315 112.324 96.8596C113.333 95.7876 114.885 94.865 116.738 94.3444C118.592 93.8244 120.397 93.8057 121.817 94.1957C123.237 94.5862 124.271 95.385 124.584 96.5004Z" fill="#00B764"/>
<path d="M41.258 131.272C41.5711 132.387 41.1032 133.608 40.0935 134.68C39.0838 135.752 37.5323 136.674 35.6789 137.195C33.8254 137.715 32.02 137.733 30.6005 137.343C29.1811 136.953 28.1461 136.154 27.833 135.039C27.5199 133.923 27.9878 132.703 28.9975 131.631C30.0072 130.559 31.5586 129.636 33.4121 129.116C35.2656 128.596 37.071 128.577 38.4904 128.967C39.9099 129.357 40.9449 130.156 41.258 131.272Z" fill="#048E49"/>
<path d="M70.7184 160.178C71.0316 161.294 70.5637 162.514 69.554 163.586C68.5443 164.658 66.9928 165.581 65.1393 166.101C63.2858 166.621 61.4804 166.64 60.061 166.25C58.6416 165.86 57.6066 165.061 57.2934 163.945C56.9803 162.83 57.4482 161.609 58.4579 160.537C59.4676 159.465 61.0191 158.543 62.8726 158.022C64.726 157.502 66.5314 157.483 67.9509 157.873C69.3708 158.264 70.4053 159.063 70.7184 160.178Z" fill="#048E49"/>
<path d="M157.753 81.0069C158.22 82.6706 157.522 84.4912 156.016 86.0898C154.51 87.6883 152.197 89.0647 149.432 89.8407C146.668 90.6162 143.975 90.6445 141.858 90.0623C139.74 89.4805 138.197 88.2887 137.731 86.625C137.264 84.9612 137.962 83.1406 139.468 81.5421C140.974 79.9436 143.287 78.5671 146.052 77.7911C148.816 77.0156 151.509 76.9873 153.626 77.5696C155.744 78.1513 157.287 79.3431 157.753 81.0069Z" fill="#00B764"/>
<path d="M213.626 78.3501C214.093 80.0139 213.395 81.8345 211.889 83.433C210.383 85.0315 208.069 86.408 205.304 87.184C202.54 87.9594 199.848 87.9878 197.73 87.4055C195.613 86.8238 194.069 85.632 193.603 83.9682C193.136 82.3044 193.834 80.4838 195.34 78.8853C196.846 77.2868 199.159 75.9104 201.924 75.1344C204.689 74.3589 207.381 74.3306 209.498 74.9128C211.615 75.4946 213.159 76.6864 213.626 78.3501Z" fill="#00B764"/>
<path d="M178.584 91.8586C178.897 92.974 178.429 94.1946 177.419 95.2665C176.41 96.3384 174.858 97.2611 173.005 97.7817C171.151 98.3017 169.346 98.3204 167.926 97.9304C166.507 97.5404 165.472 96.7411 165.159 95.6257C164.846 94.5103 165.314 93.2896 166.323 92.2177C167.333 91.1458 168.885 90.2231 170.738 89.7026C172.592 89.1826 174.397 89.1638 175.816 89.5539C177.236 89.9439 178.271 90.7431 178.584 91.8586Z" fill="#00B764"/>
<path d="M236.188 160.178C236.501 161.293 236.033 162.514 235.024 163.586C234.014 164.658 232.462 165.581 230.609 166.101C228.756 166.621 226.95 166.64 225.531 166.25C224.111 165.86 223.076 165.061 222.763 163.945C222.45 162.83 222.918 161.609 223.928 160.537C224.937 159.465 226.489 158.543 228.342 158.022C230.196 157.502 232.001 157.483 233.421 157.873C234.841 158.264 235.875 159.063 236.188 160.178Z" fill="#00B764"/>
<path d="M151.748 122.289C152.061 123.404 151.593 124.625 150.584 125.697C149.574 126.769 148.023 127.691 146.169 128.212C144.316 128.732 142.51 128.75 141.091 128.36C139.671 127.97 138.636 127.171 138.323 126.056C138.01 124.94 138.478 123.72 139.488 122.648C140.497 121.576 142.049 120.653 143.902 120.133C145.756 119.613 147.561 119.594 148.981 119.984C150.4 120.374 151.435 121.173 151.748 122.289Z" fill="#00B764"/>
<path d="M213.768 172.555H149.218C145.767 172.555 142.523 171.211 140.082 168.771C137.642 166.33 136.298 163.086 136.298 159.635V138.287C136.298 135.916 135.375 133.689 133.699 132.013C132.023 130.337 129.795 129.414 127.424 129.414H50.4512C47.0002 129.414 43.7556 128.069 41.3148 125.63C38.8746 123.189 37.5305 119.944 37.5305 116.493V89.4521C37.5305 88.3347 38.4365 87.4287 39.554 87.4287C40.6714 87.4287 41.5774 88.3347 41.5774 89.4521V116.493C41.5774 118.864 42.5006 121.092 44.1765 122.768C45.8524 124.444 48.0807 125.367 50.4507 125.367H127.424C130.876 125.367 134.12 126.711 136.561 129.151C139.001 131.591 140.345 134.836 140.345 138.287V159.636C140.345 162.006 141.268 164.234 142.944 165.91C144.62 167.586 146.848 168.509 149.219 168.509H213.768C214.886 168.509 215.792 169.415 215.792 170.533C215.792 171.65 214.885 172.555 213.768 172.555Z" fill="white"/>
<path d="M10.54 44.6856C10.54 51.1799 15.3057 61.4458 20.9744 71.3586C26.6431 81.2714 33.2142 90.8326 36.826 95.9181C37.4937 96.8579 38.5247 97.3284 39.5556 97.3284C40.5866 97.3284 41.6175 96.8584 42.2852 95.9181C45.8966 90.8326 52.4682 81.2714 58.1369 71.3586C63.8055 61.4458 68.5712 51.1799 68.5712 44.6856C68.5712 36.6733 65.3236 29.4193 60.0728 24.1685C54.822 18.9177 47.5684 15.67 39.5556 15.67C31.5428 15.67 24.2893 18.9177 19.0385 24.1685C13.7877 29.4193 10.54 36.6728 10.54 44.6856Z" fill="#DD1B1B"/>
<path d="M45.5043 91.3058C44.8942 92.1936 44.3165 93.0282 43.7773 93.7997C43.238 94.5716 42.7383 95.2808 42.284 95.9192C41.6168 96.8591 40.5853 97.329 39.5544 97.329C38.5234 97.329 37.492 96.8591 36.8248 95.9192C33.2134 90.8338 26.6423 81.2726 20.9737 71.3587C15.305 61.4449 10.5398 51.18 10.5398 44.6858C10.5398 38.1708 12.6872 32.1567 16.3132 27.3136C19.9392 22.4705 25.0428 18.7979 30.9553 16.9657C27.4213 19.6113 24.5111 23.0446 22.4847 27.005C20.4582 30.9654 19.3144 35.4528 19.3144 40.2074C19.3144 46.6743 24.0381 56.8785 29.6739 66.7509C35.3097 76.6232 41.8565 86.1647 45.5043 91.3058Z" fill="#BF1B1B"/>
<path d="M17.1277 44.9507C17.1277 51.144 19.6383 56.7514 23.6968 60.8099C27.7553 64.8685 33.3627 67.379 39.556 67.379C45.7492 67.379 51.3567 64.8685 55.4152 60.8099C59.4737 56.7514 61.9843 51.144 61.9843 44.9507C61.9843 38.7575 59.4737 33.1501 55.4152 29.0916C51.3567 25.033 45.7497 22.5225 39.556 22.5225C33.3622 22.5225 27.7553 25.033 23.6968 29.0916C19.6383 33.1501 17.1277 38.7575 17.1277 44.9507Z" fill="#AC60FC"/>
<path d="M44.2058 66.8949C43.4556 67.0537 42.6913 67.1741 41.9158 67.2555C41.1403 67.337 40.3527 67.3779 39.556 67.3779C33.3627 67.3779 27.7553 64.8679 23.6968 60.8094C19.6383 56.7508 17.1277 51.1439 17.1277 44.9497C17.1277 38.7564 19.6383 33.149 23.6968 29.0905C27.7553 25.0319 33.3627 22.5214 39.556 22.5214C40.3527 22.5214 41.1403 22.5628 41.9158 22.6438C42.6913 22.7247 43.4556 22.8456 44.2058 23.0045C39.1285 24.0749 34.6835 26.8626 31.5083 30.7325C28.333 34.6023 26.4274 39.5531 26.4274 44.9497C26.4274 50.3472 28.3335 55.298 31.5088 59.1673C34.684 63.0367 39.1285 65.8245 44.2058 66.8949Z" fill="#954CF7"/>
<path d="M54.3085 72.8272C53.7733 73.7853 53.0251 74.5051 52.2486 74.8951C51.4721 75.2852 50.6668 75.3443 50.0173 74.9816C49.3678 74.6184 48.997 73.9016 48.9221 73.0361C48.8472 72.1706 49.0688 71.1558 49.604 70.1982C50.1392 69.2401 50.8874 68.5203 51.6639 68.1303C52.4404 67.7403 53.2457 67.6811 53.8952 68.0438C54.5447 68.407 54.9155 69.1238 54.9904 69.9893C55.0653 70.8548 54.8437 71.8691 54.3085 72.8272Z" fill="#E53535"/>
<path d="M51.2444 78.6146C50.6192 79.7336 49.7456 80.5743 48.8386 81.0301C47.9316 81.4854 46.9912 81.5552 46.2324 81.1308C45.4736 80.7068 45.0406 79.8691 44.9531 78.8584C44.8655 77.8472 45.1245 76.6625 45.7498 75.5435C46.375 74.4246 47.2487 73.5838 48.1557 73.128C49.0627 72.6728 50.0031 72.603 50.7618 73.0274C51.5206 73.4513 51.9536 74.289 52.0412 75.2997C52.1282 76.3109 51.8697 77.4962 51.2444 78.6146Z" fill="#EA4949"/>
<path d="M183.944 128.729C183.944 135.223 188.71 145.489 194.378 155.402C200.047 165.315 206.618 174.876 210.23 179.962C210.898 180.902 211.928 181.372 212.959 181.372C213.99 181.372 215.021 180.902 215.689 179.962C219.3 174.876 225.872 165.315 231.541 155.402C237.209 145.489 241.975 135.223 241.975 128.729C241.975 120.717 238.727 113.463 233.477 108.212C228.226 102.961 220.972 99.7136 212.959 99.7136C204.947 99.7136 197.693 102.961 192.442 108.212C187.191 113.463 183.944 120.717 183.944 128.729Z" fill="#DD1B1B"/>
<path d="M218.908 175.35C218.298 176.238 217.72 177.072 217.181 177.844C216.642 178.616 216.142 179.325 215.688 179.963C215.02 180.903 213.989 181.373 212.958 181.373C211.927 181.373 210.896 180.903 210.228 179.963C206.617 174.878 200.046 165.317 194.377 155.403C188.709 145.489 183.943 135.223 183.943 128.73C183.943 122.215 186.091 116.201 189.717 111.358C193.342 106.514 198.446 102.842 204.359 101.01C200.825 103.655 197.915 107.089 195.888 111.049C193.861 115.009 192.718 119.497 192.718 124.251C192.718 130.718 197.442 140.922 203.077 150.795C208.713 160.667 215.26 170.208 218.908 175.35Z" fill="#BF1B1B"/>
<path d="M190.53 128.995C190.53 135.188 193.04 140.796 197.099 144.854C201.157 148.913 206.765 151.423 212.958 151.423C219.151 151.423 224.759 148.913 228.817 144.854C232.876 140.796 235.386 135.188 235.386 128.995C235.386 122.802 232.876 117.194 228.817 113.136C224.759 109.077 219.151 106.567 212.958 106.567C206.765 106.567 201.157 109.077 197.099 113.136C193.04 117.194 190.53 122.801 190.53 128.995Z" fill="#AC60FC"/>
<path d="M217.608 150.939C216.857 151.098 216.093 151.218 215.318 151.3C214.542 151.381 213.755 151.422 212.958 151.422C206.765 151.422 201.157 148.912 197.099 144.854C193.04 140.795 190.53 135.188 190.53 128.994C190.53 122.801 193.04 117.193 197.099 113.135C201.158 109.076 206.765 106.566 212.958 106.566C213.755 106.566 214.542 106.607 215.318 106.688C216.093 106.769 216.857 106.89 217.608 107.049C212.53 108.119 208.085 110.907 204.91 114.777C201.735 118.646 199.829 123.597 199.829 128.994C199.829 134.391 201.735 139.342 204.91 143.212C208.085 147.081 212.53 149.869 217.608 150.939Z" fill="#954CF7"/>
<path d="M227.711 156.871C227.175 157.829 226.427 158.549 225.651 158.939C224.874 159.329 224.069 159.388 223.419 159.026C222.77 158.662 222.399 157.946 222.324 157.08C222.249 156.215 222.471 155.2 223.006 154.242C223.541 153.285 224.289 152.564 225.066 152.174C225.842 151.784 226.648 151.725 227.297 152.088C227.947 152.451 228.318 153.168 228.392 154.033C228.467 154.899 228.246 155.913 227.711 156.871Z" fill="#E53535"/>
<path d="M224.648 162.659C224.023 163.778 223.149 164.618 222.242 165.074C221.335 165.529 220.395 165.599 219.636 165.175C218.877 164.751 218.444 163.913 218.357 162.903C218.269 161.892 218.528 160.707 219.153 159.588C219.779 158.469 220.652 157.628 221.559 157.172C222.466 156.717 223.407 156.647 224.165 157.071C224.924 157.496 225.357 158.333 225.445 159.344C225.532 160.355 225.273 161.54 224.648 162.659Z" fill="#EA4949"/>
</svg>
