<svg width="33" height="33" viewBox="0 0 33 33" fill="none" xmlns="http://www.w3.org/2000/svg">
<g clip-path="url(#clip0)">
<path d="M26.9416 0.366089H5.38826V3.06026H26.9416V0.366089ZM5.38826 32.6961H26.9416V30.0019H5.38826V32.6961ZM26.9416 5.75442H5.38826C3.90647 5.75442 2.69409 6.9668 2.69409 8.44859V24.6136C2.69409 26.0954 3.90647 27.3078 5.38826 27.3078H26.9416C28.4234 27.3078 29.6358 26.0954 29.6358 24.6136V8.44859C29.6358 6.9668 28.4234 5.75442 26.9416 5.75442ZM16.1649 9.4589C17.8353 9.4589 19.1959 10.8195 19.1959 12.4898C19.1959 14.1602 17.8353 15.5208 16.1649 15.5208C14.4945 15.5208 13.134 14.1602 13.134 12.4898C13.134 10.8195 14.4945 9.4589 16.1649 9.4589ZM22.9003 23.2665H9.42951V21.2459C9.42951 18.9963 13.9153 17.8782 16.1649 17.8782C18.4146 17.8782 22.9003 18.9963 22.9003 21.2459V23.2665Z" fill="#323232"/>
</g>
<defs>
<clipPath id="clip0">
<rect width="32.33" height="32.33" fill="white" transform="translate(0 0.366089)"/>
</clipPath>
</defs>
</svg>
