<svg width="58" height="72" viewBox="0 0 58 72" fill="none" xmlns="http://www.w3.org/2000/svg">
<path d="M56.1856 30.5936C56.1856 43.6624 38.4831 62.2474 31.4301 69.1332C29.815 70.71 27.3451 70.71 25.7301 69.1332C18.6771 62.2474 0.974609 43.6624 0.974609 30.5936C0.974609 14.2737 13.334 1.0437 28.5801 1.0437C43.8262 1.0437 56.1856 14.2737 56.1856 30.5936Z" fill="#F47C7C"/>
<path d="M18.6513 32.5765C18.6513 18.5057 27.8394 6.73309 40.1433 3.75515C36.6258 2.01584 32.7093 1.0437 28.5801 1.0437C13.334 1.0437 0.974609 14.2737 0.974609 30.5936C0.974609 43.6625 18.6772 62.2474 25.7301 69.1333C27.3453 70.7101 29.8151 70.7101 31.4301 69.1333C32.7916 67.804 34.5509 66.0374 36.5022 63.9599C28.558 55.2165 18.6513 42.3532 18.6513 32.5765Z" fill="#EE6161"/>
<path d="M28.58 8.73511C17.3025 8.73511 8.15967 18.5219 8.15967 30.5937C8.15967 33.8124 8.80967 36.8696 9.97836 39.6207L23.2543 42.2466L42.8711 41.4984L48.6571 34.6043C48.882 33.3046 49.0003 31.9645 49.0003 30.5938C49.0003 18.5219 39.8574 8.73511 28.58 8.73511Z" fill="#DFF6FD"/>
<path d="M28.5827 8.73438C17.3052 8.73438 8.16235 18.5212 8.16235 30.593C8.16235 33.8116 8.81235 36.8689 9.98105 39.62L20.9065 41.781C19.5047 38.5685 18.6537 35.4398 18.6537 32.5759C18.6537 22.8147 23.0746 14.1601 29.8909 8.77974C29.4577 8.75038 29.0229 8.73438 28.5827 8.73438Z" fill="#99E6FC"/>
<path d="M42.0538 29.127C41.4948 28.6483 40.6979 28.6552 40.1454 29.1437L34.6789 33.9905C34.6789 33.9905 26.9503 39.5259 27.1572 39.4612C27.364 39.3965 39.2189 46.553 39.2189 46.553L45.3272 43.1022C46.9599 40.6016 48.1169 37.7197 48.6564 34.604L42.0538 29.127Z" fill="#97DA7B"/>
<path d="M34.6792 33.9903L45.3275 43.1022C41.6368 48.7548 35.5112 52.4521 28.5796 52.4521C20.3091 52.4521 13.1877 47.1892 9.97803 39.6206L24.3937 26.8419C24.9462 26.3534 25.743 26.3451 26.302 26.8238L34.6792 33.9903Z" fill="#ADE194"/>
<path d="M18.6508 32.5765C18.6508 32.3594 18.6543 32.1418 18.6586 31.9257L9.97803 39.6204C12.9944 46.7334 19.4667 51.8098 27.0996 52.3955C22.3819 45.7373 18.6508 38.5754 18.6508 32.5765Z" fill="#97DA7B"/>
<path d="M34.6791 24.4235C36.3002 24.4235 37.6144 23.0168 37.6144 21.2815C37.6144 19.5462 36.3002 18.1395 34.6791 18.1395C33.0581 18.1395 31.7439 19.5462 31.7439 21.2815C31.7439 23.0168 33.0581 24.4235 34.6791 24.4235Z" fill="#FEF056"/>
<path d="M48.7899 8.96066C43.3918 3.18221 36.2147 0 28.5805 0C20.9463 0 13.7693 3.18221 8.37105 8.96066C2.97283 14.7391 0 22.4216 0 30.5935C0 43.9798 17.5346 62.5441 25.0735 69.9042C26.0733 70.8804 27.3268 71.3683 28.5806 71.3683C29.8342 71.3683 31.0882 70.8801 32.0877 69.9042C39.6265 62.544 57.1613 43.9798 57.1613 30.5935C57.161 22.4216 54.1882 14.739 48.7899 8.96066ZM30.7735 68.3621C29.5233 69.5826 27.6377 69.5826 26.3875 68.3621C23.11 65.1621 16.8136 58.7206 11.4709 51.5323C5.15331 43.0324 1.94999 35.9876 1.94999 30.5935C1.94999 14.8752 13.8964 2.08734 28.5805 2.08734C43.2646 2.08734 55.211 14.8752 55.211 30.5935C55.211 35.9876 52.0077 43.0324 45.6901 51.5323C40.3474 58.7206 34.0511 65.1621 30.7735 68.3621Z" fill="black"/>
<path d="M33.2835 50.7946C31.7505 51.2023 30.1681 51.409 28.5801 51.409C20.9819 51.409 14.3886 46.7191 11.191 39.9024L17.7682 34.0718C18.1829 33.7042 18.2407 33.0462 17.8973 32.6022C17.5537 32.1586 16.9392 32.0965 16.5245 32.4641L10.3772 37.9136C9.575 35.6352 9.13469 33.1686 9.13469 30.5935C9.13469 19.1159 17.858 9.77813 28.5804 9.77813C33.823 9.77813 38.7389 11.9792 42.4227 15.976C42.8007 16.3861 43.4181 16.3905 43.8015 15.9859C44.1848 15.5811 44.1889 14.9202 43.8107 14.51C39.7576 10.1125 34.3487 7.6908 28.5802 7.6908C16.7827 7.6908 7.18457 17.9649 7.18457 30.5935C7.18457 43.222 16.7827 53.4962 28.5802 53.4962C30.3265 53.4962 32.0671 53.2686 33.7538 52.8201C34.2764 52.6813 34.5948 52.1152 34.465 51.5556C34.335 50.9964 33.8063 50.6553 33.2835 50.7946Z" fill="black"/>
<path d="M46.539 18.1415C46.2459 17.6578 45.6419 17.5206 45.1904 17.8342C44.7387 18.148 44.6102 18.7943 44.9034 19.2778C46.9463 22.6471 48.0261 26.56 48.0261 30.5934C48.0261 31.3355 47.9892 32.0736 47.9168 32.8052L42.6636 28.3111C41.748 27.5277 40.4279 27.5401 39.5249 28.3404L34.6687 32.6454L26.9115 26.0091C25.9958 25.2259 24.6758 25.2383 23.7729 26.0384L19.7247 29.6271C19.31 29.9948 19.2522 30.6527 19.5957 31.0967C19.9391 31.5408 20.5538 31.6026 20.9684 31.2348L25.0166 27.6461C25.2115 27.4733 25.4965 27.4708 25.694 27.6397L34.0653 34.8014C34.0682 34.8039 34.0712 34.8064 34.0741 34.8087L43.9878 43.29C42.138 45.8602 39.7563 47.9391 37.0163 49.3536C36.5313 49.6041 36.3277 50.2279 36.5616 50.7471C36.7297 51.1202 37.0778 51.3377 37.4405 51.3377C37.5826 51.3377 37.7269 51.3043 37.8633 51.2338C41.4377 49.3885 44.461 46.519 46.6066 42.9353C48.8109 39.2536 49.976 34.9859 49.976 30.5936C49.9761 26.1557 48.7875 21.85 46.539 18.1415ZM45.1019 41.571L36.2246 33.9764L40.7689 29.948C40.9638 29.7755 41.2487 29.7724 41.4463 29.9416L47.5525 35.1655C47.079 37.4253 46.2539 39.5883 45.1019 41.571Z" fill="black"/>
<path d="M30.7686 21.2816C30.7686 23.5897 32.5228 25.4673 34.6788 25.4673C36.8348 25.4673 38.589 23.5897 38.589 21.2816C38.589 18.9736 36.8348 17.0959 34.6788 17.0959C32.5228 17.0959 30.7686 18.9736 30.7686 21.2816ZM36.6392 21.2816C36.6392 22.4386 35.7597 23.3799 34.6789 23.3799C33.5981 23.3799 32.7187 22.4386 32.7187 21.2816C32.7187 20.1247 33.5981 19.1833 34.6789 19.1833C35.7597 19.1833 36.6392 20.1245 36.6392 21.2816Z" fill="black"/>
</svg>
